<svg width="40" height="40" viewBox="0 0 40 40" fill="none" xmlns="http://www.w3.org/2000/svg">
  <circle cx="20" cy="20" r="20" fill="#FFC800"/>
  <path d="M16.1625 13.125C16.4966 11.794 18.2099 10.5125 20.0001 10.5125C21.7904 10.5125 23.5036 11.794 23.8377 13.125H24.3992C25.2964 13.1249 26.1626 13.4539 26.8336 14.0495C27.5046 14.6452 27.9339 15.4662 28.0402 16.3571L29.0792 25.0654C29.1406 25.58 29.0923 26.1017 28.9373 26.5962C28.7824 27.0907 28.5244 27.5468 28.1804 27.9343C27.8363 28.3218 27.4141 28.632 26.9414 28.8444C26.4687 29.0568 25.9564 29.1666 25.4382 29.1666H14.562C14.0438 29.1666 13.5315 29.0568 13.0588 28.8444C12.5861 28.632 12.1639 28.3218 11.8198 27.9343C11.4758 27.5468 11.2178 27.0907 11.0629 26.5962C10.9079 26.1017 10.8596 25.58 10.921 25.0654L11.9596 16.3571C12.0659 15.4662 12.4952 14.6452 13.1662 14.0495C13.8372 13.4539 14.7033 13.1249 15.6006 13.125H16.1625V13.125ZM17.6356 13.125H22.3646C21.9939 12.5296 21.0116 11.8875 20.0001 11.8875C18.9886 11.8875 18.0068 12.5296 17.6351 13.125H17.6356ZM15.6006 14.5C15.0397 14.4999 14.4984 14.7056 14.079 15.0779C13.6596 15.4502 13.3913 15.9634 13.3249 16.5203L12.2864 25.2286C12.248 25.5502 12.2782 25.8762 12.3751 26.1852C12.4719 26.4942 12.6331 26.7791 12.8481 27.0213C13.063 27.2635 13.3269 27.4573 13.6222 27.5901C13.9176 27.7229 14.2377 27.7916 14.5615 27.7916H25.4382C25.7621 27.7916 26.0823 27.723 26.3777 27.5902C26.6731 27.4575 26.937 27.2637 27.152 27.0215C27.367 26.7793 27.5282 26.4943 27.6251 26.1853C27.7219 25.8762 27.7522 25.5502 27.7139 25.2286L26.6748 16.5203C26.6084 15.9634 26.3401 15.4502 25.9207 15.0779C25.5014 14.7056 24.96 14.4999 24.3992 14.5H15.6006V14.5ZM15.7106 21.3919C15.6722 21.3101 15.6504 21.2216 15.6462 21.1314C15.6421 21.0412 15.6558 20.951 15.6865 20.8661C15.7172 20.7812 15.7643 20.7031 15.8252 20.6364C15.8861 20.5697 15.9595 20.5156 16.0412 20.4773C16.123 20.439 16.2115 20.4171 16.3017 20.413C16.392 20.4088 16.4821 20.4225 16.567 20.4532C16.652 20.4839 16.73 20.5311 16.7967 20.5919C16.8634 20.6528 16.9175 20.7262 16.9559 20.808C17.4884 21.9437 18.6861 22.7041 20.0019 22.7041C21.3169 22.7041 22.5122 21.9437 23.0453 20.808C23.1233 20.6439 23.2631 20.5174 23.4342 20.4561C23.6052 20.3949 23.7936 20.4038 23.9581 20.4809C24.1225 20.5581 24.2498 20.6972 24.312 20.8679C24.3742 21.0386 24.3664 21.227 24.2901 21.3919C23.5306 23.0107 21.8499 24.0791 20.0019 24.0791C18.153 24.0791 16.47 23.0103 15.711 21.3919H15.7106Z" fill="black" stroke="black" stroke-width="0.5"/>
</svg>
