<svg width="46" height="45" viewBox="0 0 46 45" fill="none" xmlns="http://www.w3.org/2000/svg">
  <circle cx="20" cy="25" r="20" fill="#FFC800"/>
  <path d="M16.1625 18.125C16.4966 16.794 18.2099 15.5125 20.0001 15.5125C21.7904 15.5125 23.5036 16.794 23.8377 18.125H24.3992C25.2964 18.1249 26.1626 18.4539 26.8336 19.0495C27.5046 19.6452 27.9339 20.4662 28.0402 21.3571L29.0792 30.0654C29.1406 30.58 29.0923 31.1017 28.9373 31.5962C28.7824 32.0907 28.5244 32.5468 28.1804 32.9343C27.8363 33.3218 27.4141 33.632 26.9414 33.8444C26.4687 34.0568 25.9564 34.1666 25.4382 34.1666H14.562C14.0438 34.1666 13.5315 34.0568 13.0588 33.8444C12.5861 33.632 12.1639 33.3218 11.8198 32.9343C11.4758 32.5468 11.2178 32.0907 11.0629 31.5962C10.9079 31.1017 10.8596 30.58 10.921 30.0654L11.9596 21.3571C12.0659 20.4662 12.4952 19.6452 13.1662 19.0495C13.8372 18.4539 14.7033 18.1249 15.6006 18.125H16.1625ZM17.6356 18.125H22.3646C21.9939 17.5296 21.0116 16.8875 20.0001 16.8875C18.9886 16.8875 18.0068 17.5296 17.6351 18.125H17.6356ZM15.6006 19.5C15.0397 19.4999 14.4984 19.7056 14.079 20.0779C13.6596 20.4502 13.3913 20.9634 13.3249 21.5203L12.2864 30.2286C12.248 30.5502 12.2782 30.8762 12.3751 31.1852C12.4719 31.4942 12.6331 31.7791 12.8481 32.0213C13.063 32.2635 13.3269 32.4573 13.6222 32.5901C13.9176 32.7229 14.2377 32.7916 14.5615 32.7916H25.4382C25.7621 32.7916 26.0823 32.723 26.3777 32.5902C26.6731 32.4575 26.937 32.2637 27.152 32.0215C27.367 31.7793 27.5282 31.4943 27.6251 31.1853C27.7219 30.8762 27.7522 30.5502 27.7139 30.2286L26.6748 21.5203C26.6084 20.9634 26.3401 20.4502 25.9207 20.0779C25.5014 19.7056 24.96 19.4999 24.3992 19.5H15.6006ZM15.7106 26.3919C15.6722 26.3101 15.6504 26.2216 15.6462 26.1314C15.6421 26.0412 15.6558 25.951 15.6865 25.8661C15.7172 25.7812 15.7643 25.7031 15.8252 25.6364C15.8861 25.5697 15.9595 25.5156 16.0412 25.4773C16.123 25.439 16.2115 25.4171 16.3017 25.413C16.392 25.4088 16.4821 25.4225 16.567 25.4532C16.652 25.4839 16.73 25.5311 16.7967 25.5919C16.8634 25.6528 16.9175 25.7262 16.9559 25.808C17.4884 26.9437 18.6861 27.7041 20.0019 27.7041C21.3169 27.7041 22.5122 26.9437 23.0453 25.808C23.1233 25.6439 23.2631 25.5174 23.4342 25.4561C23.6052 25.3949 23.7936 25.4038 23.9581 25.4809C24.1225 25.5581 24.2498 25.6972 24.312 25.8679C24.3742 26.0386 24.3664 26.227 24.2901 26.3919C23.5306 28.0107 21.8499 29.0791 20.0019 29.0791C18.153 29.0791 16.47 28.0103 15.711 26.3919H15.7106Z" fill="black" stroke="black" stroke-width="0.5"/>
  <circle cx="36" cy="10" r="9.40625" fill="#009EFE" stroke="#F4F4F4" stroke-width="1.1875"/>
  <path d="M38.7425 15V13.62H35.4185L35.3705 13.548C35.7185 13.212 36.0185 12.912 36.2945 12.636L37.3265 11.604C38.0465 10.872 38.6225 10.02 38.6225 9C38.6225 7.656 37.5785 6.6 35.9105 6.6C34.3625 6.6 33.4745 7.62 33.2105 8.496L34.6385 9.084C34.7825 8.568 35.1665 8.088 35.8865 8.088C36.6065 8.088 37.0505 8.544 37.0505 9.072C37.0505 9.636 36.7985 9.948 36.2825 10.56C36.0305 10.848 35.2745 11.592 34.5905 12.276C34.1945 12.672 33.7505 13.104 33.2825 13.572V15H38.7425Z" fill="white"/>
  </svg>
  