<svg width="40" height="52" viewBox="0 0 40 52" fill="none" xmlns="http://www.w3.org/2000/svg">
<path d="M13.889 6.38139C13.889 3.00333 16.6175 0.274902 19.9955 0.274902C23.3736 0.274902 26.102 3.00333 26.102 6.38139C26.102 12.1631 19.9955 12.8127 19.9955 16.5805C19.9955 12.8127 13.889 12.1631 13.889 6.38139ZM34.9369 16.1907L34.6121 16.1258C34.2873 16.0608 33.9625 16.0608 33.6377 15.9959C33.4428 15.9959 33.1829 15.9959 32.9231 16.0608C29.2202 16.1258 24.5429 17.555 22.5291 16.5805C24.9327 17.7498 26.4918 23.5965 29.8049 26.26L29.8698 26.3249L30.0647 26.5198C30.1297 26.5198 30.1297 26.5848 30.1947 26.5848C30.2596 26.6497 30.3246 26.6497 30.3895 26.7147C30.5844 26.8446 30.8443 26.9745 31.0392 27.1045C33.9625 28.4687 37.4055 27.2344 38.8347 24.3111C40.1989 21.3878 38.9646 17.9447 36.0413 16.5156C35.7165 16.4506 35.3267 16.3207 34.9369 16.1907ZM3.94976 16.5805C1.02644 17.9447 -0.207854 21.4527 1.15636 24.376C2.52058 27.2994 6.02856 28.5336 8.95188 27.1694C9.21173 27.0395 9.40662 26.9096 9.6015 26.7797C9.66647 26.7147 9.73143 26.7147 9.79639 26.6497C9.86136 26.6497 9.86135 26.5848 9.92632 26.5848L10.1212 26.3899L10.1862 26.3249C13.4993 23.6614 15.0584 17.8148 17.462 16.6455C15.3832 17.6199 10.7708 16.1907 7.06796 16.1258C6.80811 16.1258 6.61322 16.0608 6.35337 16.0608C6.02856 16.0608 5.70375 16.1258 5.37893 16.1907L5.05412 16.2557V16.3207C4.66434 16.3207 4.27457 16.4506 3.94976 16.5805Z" fill="url(#paint0_linear_1_1306)"/>
<path d="M13.4993 35.1599H26.4918C25.3225 37.4986 22.8539 39.1226 19.9955 39.1226C17.1372 39.1226 14.7336 37.4986 13.4993 35.1599Z" fill="black"/>
<path d="M21.6846 20.8681H18.1116C19.151 19.309 19.9306 17.8149 19.9306 16.5806C19.9956 17.8149 20.7101 19.244 21.6846 20.8681Z" fill="black"/>
<path d="M25.3225 26.4548H14.4737C14.9934 25.4803 15.643 24.5709 16.2277 23.6614H23.5685C24.1531 24.5709 24.7378 25.5453 25.3225 26.4548Z" fill="black"/>
<path d="M27.2714 31.8468C27.2714 31.9767 27.2714 32.1716 27.2714 32.3015H12.7197C12.7197 32.1716 12.7197 31.9767 12.7197 31.8468C12.7197 31.522 12.7197 31.1972 12.7847 30.8724C12.7847 30.7424 12.7847 30.6775 12.8496 30.5476C12.8496 30.4826 12.8496 30.4176 12.8496 30.3527L12.9146 29.9629V29.8979C12.9796 29.6381 13.0445 29.4432 13.1095 29.1833H26.7517C26.8166 29.4432 26.9465 29.703 27.0115 29.9629L27.0765 30.3527C27.2064 30.8724 27.2714 31.3921 27.2714 31.8468Z" fill="black"/>
<path d="M5.05412 44.5795C4.98916 44.5795 4.85923 44.5795 4.79427 44.5795C4.79427 44.5795 4.79427 44.5795 4.72931 44.5795H4.66434C3.94975 44.5795 3.30013 44.8393 2.84539 45.2941V41.2664C2.84539 41.2014 2.78043 41.2014 2.78043 41.2014C2.71546 41.2014 2.71546 41.2014 2.71546 41.2664C2.00087 42.3707 0.636658 42.4357 0.636658 44.3846V50.621C0.636658 51.2706 1.15636 51.7254 1.74102 51.7254H2.71546C2.78043 51.7254 2.78043 51.6604 2.78043 51.6604V51.0108C3.23516 51.4655 3.88479 51.7254 4.59938 51.7254H4.66434C4.66434 51.7254 4.66434 51.7254 4.72931 51.7254C6.28841 51.7254 7.58766 50.1663 7.58766 48.1524C7.65263 46.2685 6.4833 44.7744 5.05412 44.5795ZM4.14464 50.1663H4.07968C3.62494 50.1663 3.1702 49.8414 2.97532 49.3867C2.84539 49.1269 2.78043 48.867 2.78043 48.6072V47.6327C2.78043 47.178 2.91035 46.8532 3.1702 46.5284C3.43005 46.2685 3.75487 46.0736 4.07968 46.0736H4.14464C4.79427 46.0736 5.31397 46.7882 5.4439 47.6977C5.4439 47.8276 5.4439 47.9575 5.4439 48.1524C5.50886 49.2568 4.9242 50.1663 4.14464 50.1663Z" fill="black"/>
<path d="M24.0882 46.2684L25.7772 42.2407H28.1808L25.1925 48.1523V51.4654H22.9188V48.1523L19.9305 42.2407H22.3342L24.0882 46.2684Z" fill="#FFC800"/>
<path d="M26.3619 47.9575C26.3619 47.2429 26.4918 46.6582 26.7517 46.1385C27.0115 45.6188 27.4013 45.1641 27.921 44.9042C28.4407 44.6443 29.0253 44.4495 29.675 44.4495C30.7144 44.4495 31.4939 44.7743 32.0786 45.4239C32.6632 46.0735 32.9881 46.918 32.9881 48.0224V48.0874C32.9881 49.1268 32.6632 49.9713 32.0786 50.6209C31.4939 51.2706 30.7144 51.5304 29.675 51.5304C28.7005 51.5304 27.921 51.2706 27.3363 50.6859C26.7517 50.1012 26.4268 49.3217 26.3619 48.2823V47.9575ZM28.5056 48.0874C28.5056 48.737 28.6356 49.1917 28.8305 49.4516C29.0253 49.7764 29.3502 49.9063 29.7399 49.9063C30.5195 49.9063 30.9093 49.3217 30.9093 48.1523V47.9575C30.9093 46.7232 30.5195 46.1385 29.7399 46.1385C29.0253 46.1385 28.6356 46.6582 28.5706 47.6976L28.5056 48.0874Z" fill="#FFC800"/>
<path d="M37.3405 50.6858C36.8858 51.2705 36.3011 51.5304 35.5216 51.5304C34.742 51.5304 34.2223 51.3355 33.8325 50.8807C33.4428 50.426 33.2479 49.8413 33.2479 48.9968V44.5793H35.3916V48.9968C35.3916 49.5815 35.6515 49.9063 36.2361 49.9063C36.7558 49.9063 37.0807 49.7114 37.2755 49.3866V44.5793H39.4193V51.4004H37.4055L37.3405 50.6858Z" fill="#FFC800"/>
<path d="M14.6036 47.243C14.4737 46.5934 14.1489 46.0087 13.6941 45.619C13.1095 45.0343 12.265 44.6445 11.2905 44.6445C9.40662 44.6445 7.91248 46.1387 7.91248 48.0226V48.3474C7.91248 50.2313 9.40661 51.7255 11.2256 51.7255H11.2905C12.8496 51.7255 13.5642 51.0758 14.2139 50.4262V50.3612V50.2963L13.1095 49.5817C13.1095 49.5817 13.1095 49.5817 13.0445 49.5817H12.9796C12.5248 49.9065 12.265 50.2963 11.2905 50.2313C10.7059 50.1664 10.1862 49.5817 10.1212 48.8671H14.5387C14.6036 48.8671 14.6036 48.8671 14.6036 48.8021C14.6036 48.8021 14.6036 48.8021 14.6036 48.7372C14.6036 48.6072 14.6036 48.4773 14.6036 48.3474V48.0226C14.6686 47.6978 14.6036 47.5029 14.6036 47.243ZM10.1212 47.4379C10.1862 47.1131 10.3161 46.7883 10.511 46.5934C10.7708 46.3336 11.0956 46.1387 11.4205 46.1387H11.4854C12.0701 46.1387 12.5898 46.6584 12.7197 47.4379H10.1212Z" fill="black"/>
<path d="M21.6196 47.243C21.4897 46.5934 21.1649 46.0087 20.7101 45.619C20.1255 45.0343 19.281 44.6445 18.3065 44.6445C16.4226 44.6445 14.9285 46.1387 14.9285 48.0226V48.3474C14.9285 50.2313 16.4226 51.7255 18.2416 51.7255H18.3065C19.8656 51.7255 20.5802 51.0758 21.2298 50.4262V50.3612V50.2963L20.1255 49.5817C20.1255 49.5817 20.1255 49.5817 20.0605 49.5817H19.9956C19.5408 49.9065 19.281 50.2963 18.3065 50.2313C17.7219 50.1664 17.2022 49.5817 17.1372 48.8671H21.5547C21.6196 48.8671 21.6196 48.8671 21.6196 48.8021C21.6196 48.8021 21.6196 48.8021 21.6196 48.7372C21.6196 48.6072 21.6196 48.4773 21.6196 48.3474V48.0226C21.6846 47.6978 21.6196 47.5029 21.6196 47.243ZM17.1372 47.4379C17.2022 47.1131 17.3321 46.7883 17.527 46.5934C17.7868 46.3336 18.1116 46.1387 18.4365 46.1387H18.5014C19.0861 46.1387 19.6058 46.6584 19.7357 47.4379H17.1372Z" fill="black"/>
<defs>
<linearGradient id="paint0_linear_1_1306" x1="31.4757" y1="32.2154" x2="8.51709" y2="9.25683" gradientUnits="userSpaceOnUse">
<stop stop-color="#FFAF00"/>
<stop offset="1" stop-color="#FFDC00"/>
</linearGradient>
</defs>
</svg>
